<svg width="83" height="33" viewBox="0 0 83 33" fill="none" xmlns="http://www.w3.org/2000/svg">
<path d="M0.838068 8.38636V7.24432C1.49337 7.24432 1.94792 7.11364 2.2017 6.85227C2.45549 6.59091 2.58239 6.16856 2.58239 5.58523V4.32955C2.58239 3.62879 2.67898 3.06818 2.87216 2.64773C3.06913 2.22348 3.34186 1.90341 3.69034 1.6875C4.04261 1.47159 4.45928 1.32765 4.94034 1.25568C5.4214 1.18371 5.94792 1.14773 6.51989 1.14773V2.95455C6.07292 2.95455 5.73201 3.01326 5.49716 3.13068C5.2661 3.24432 5.1089 3.42235 5.02557 3.66477C4.94224 3.90341 4.90057 4.20644 4.90057 4.57386V6.23295C4.90057 6.52083 4.84754 6.79545 4.74148 7.05682C4.63542 7.31439 4.43845 7.54356 4.15057 7.74432C3.86269 7.94129 3.4517 8.09848 2.91761 8.21591C2.38352 8.32955 1.69034 8.38636 0.838068 8.38636ZM6.51989 15.5284C5.94792 15.5284 5.4214 15.4924 4.94034 15.4205C4.45928 15.3485 4.04261 15.2045 3.69034 14.9886C3.34186 14.7727 3.06913 14.4527 2.87216 14.0284C2.67898 13.608 2.58239 13.0473 2.58239 12.3466V11.0852C2.58239 10.5019 2.45549 10.0795 2.2017 9.81818C1.94792 9.55682 1.49337 9.42614 0.838068 9.42614V8.28409C1.69034 8.28409 2.38352 8.3428 2.91761 8.46023C3.4517 8.57386 3.86269 8.73106 4.15057 8.93182C4.43845 9.12879 4.63542 9.35795 4.74148 9.61932C4.84754 9.87689 4.90057 10.1515 4.90057 10.4432V12.1023C4.90057 12.4659 4.94224 12.767 5.02557 13.0057C5.1089 13.2481 5.2661 13.4261 5.49716 13.5398C5.73201 13.6572 6.07292 13.7159 6.51989 13.7159V15.5284ZM0.838068 9.42614V7.24432H2.87784V9.42614H0.838068ZM15.1179 6.76136L12.902 6.89773C12.8641 6.70833 12.7827 6.53788 12.6577 6.38636C12.5327 6.23106 12.3679 6.10795 12.1634 6.01705C11.9626 5.92235 11.7221 5.875 11.4418 5.875C11.0668 5.875 10.7505 5.95455 10.4929 6.11364C10.2353 6.26894 10.1065 6.47727 10.1065 6.73864C10.1065 6.94697 10.1899 7.12311 10.3565 7.26705C10.5232 7.41098 10.8092 7.52652 11.2145 7.61364L12.794 7.93182C13.6425 8.10606 14.2751 8.38636 14.6918 8.77273C15.1084 9.15909 15.3168 9.66667 15.3168 10.2955C15.3168 10.8674 15.1482 11.3693 14.8111 11.8011C14.4777 12.233 14.0194 12.5701 13.4361 12.8125C12.8565 13.0511 12.188 13.1705 11.4304 13.1705C10.2751 13.1705 9.35464 12.9299 8.66903 12.4489C7.98722 11.964 7.58759 11.3049 7.47017 10.4716L9.85085 10.3466C9.92282 10.6989 10.0971 10.9678 10.3736 11.1534C10.6501 11.3352 11.0043 11.4261 11.4361 11.4261C11.8603 11.4261 12.2012 11.3447 12.4588 11.1818C12.7202 11.0152 12.8527 10.8011 12.8565 10.5398C12.8527 10.3201 12.7599 10.1402 12.5781 10C12.3963 9.85606 12.116 9.74621 11.7372 9.67045L10.2259 9.36932C9.37358 9.19886 8.73911 8.90341 8.32244 8.48295C7.90956 8.0625 7.70312 7.52652 7.70312 6.875C7.70312 6.31439 7.85464 5.83144 8.15767 5.42614C8.46449 5.02083 8.89441 4.70833 9.44744 4.48864C10.0043 4.26894 10.6558 4.15909 11.402 4.15909C12.5043 4.15909 13.3717 4.39205 14.0043 4.85795C14.6406 5.32386 15.0118 5.95833 15.1179 6.76136ZM20.0568 13.142C19.3939 13.142 18.7936 12.9716 18.2557 12.6307C17.7216 12.286 17.2973 11.7803 16.983 11.1136C16.6723 10.4432 16.517 9.62121 16.517 8.64773C16.517 7.64773 16.678 6.81629 17 6.15341C17.322 5.48674 17.75 4.98864 18.2841 4.65909C18.822 4.32576 19.411 4.15909 20.0511 4.15909C20.5398 4.15909 20.947 4.24242 21.2727 4.40909C21.6023 4.57197 21.8674 4.77652 22.0682 5.02273C22.2727 5.26515 22.428 5.50379 22.5341 5.73864H22.608V1.36364H25.0227V13H22.6364V11.6023H22.5341C22.4205 11.8447 22.2595 12.0852 22.0511 12.3239C21.8466 12.5587 21.5795 12.7538 21.25 12.9091C20.9242 13.0644 20.5265 13.142 20.0568 13.142ZM20.8239 11.2159C21.214 11.2159 21.5436 11.1098 21.8125 10.8977C22.0852 10.6818 22.2936 10.3807 22.4375 9.99432C22.5852 9.60795 22.6591 9.1553 22.6591 8.63636C22.6591 8.11742 22.5871 7.66667 22.4432 7.28409C22.2992 6.90151 22.0909 6.60606 21.8182 6.39773C21.5455 6.18939 21.214 6.08523 20.8239 6.08523C20.4261 6.08523 20.0909 6.19318 19.8182 6.40909C19.5455 6.625 19.339 6.92424 19.1989 7.30682C19.0587 7.68939 18.9886 8.13258 18.9886 8.63636C18.9886 9.14394 19.0587 9.5928 19.1989 9.98295C19.3428 10.3693 19.5492 10.6723 19.8182 10.892C20.0909 11.108 20.4261 11.2159 20.8239 11.2159ZM32.0526 1.36364V13H29.5923V3.69886H29.5241L26.8594 5.36932V3.1875L29.7401 1.36364H32.0526ZM39.1193 13.1591C38.2708 13.1591 37.5152 13.0133 36.8523 12.7216C36.1932 12.4261 35.6723 12.0208 35.2898 11.5057C34.911 10.9867 34.7159 10.3883 34.7045 9.71023H37.1818C37.197 9.99432 37.2898 10.2443 37.4602 10.4602C37.6345 10.6723 37.8655 10.8371 38.1534 10.9545C38.4413 11.072 38.7652 11.1307 39.125 11.1307C39.5 11.1307 39.8314 11.0644 40.1193 10.9318C40.4072 10.7992 40.6326 10.6155 40.7955 10.3807C40.9583 10.1458 41.0398 9.875 41.0398 9.56818C41.0398 9.25758 40.9527 8.98295 40.7784 8.74432C40.608 8.50189 40.3617 8.3125 40.0398 8.17614C39.7216 8.03977 39.3428 7.97159 38.9034 7.97159H37.8182V6.16477H38.9034C39.2746 6.16477 39.6023 6.10038 39.8864 5.97159C40.1742 5.8428 40.3977 5.66477 40.5568 5.4375C40.7159 5.20644 40.7955 4.9375 40.7955 4.63068C40.7955 4.33902 40.7254 4.08333 40.5852 3.86364C40.4489 3.64015 40.2557 3.46591 40.0057 3.34091C39.7595 3.21591 39.4716 3.15341 39.142 3.15341C38.8087 3.15341 38.5038 3.21402 38.2273 3.33523C37.9508 3.45265 37.7292 3.62121 37.5625 3.84091C37.3958 4.06061 37.3068 4.31818 37.2955 4.61364H34.9375C34.9489 3.94318 35.1402 3.35227 35.5114 2.84091C35.8826 2.32955 36.3826 1.92992 37.0114 1.64205C37.6439 1.35038 38.358 1.20455 39.1534 1.20455C39.9564 1.20455 40.6591 1.35038 41.2614 1.64205C41.8636 1.93371 42.3314 2.32765 42.6648 2.82386C43.0019 3.31629 43.1686 3.86932 43.1648 4.48295C43.1686 5.13447 42.9659 5.67803 42.5568 6.11364C42.1515 6.54924 41.6231 6.82576 40.9716 6.94318V7.03409C41.8277 7.14394 42.4792 7.44129 42.9261 7.92614C43.3769 8.4072 43.6004 9.00947 43.5966 9.73295C43.6004 10.3958 43.4091 10.9848 43.0227 11.5C42.6402 12.0152 42.1117 12.4205 41.4375 12.7159C40.7633 13.0114 39.9905 13.1591 39.1193 13.1591ZM49.831 13.1591C49.2325 13.1553 48.6548 13.0549 48.098 12.858C47.545 12.661 47.0488 12.3409 46.6094 11.8977C46.17 11.4545 45.8215 10.8674 45.5639 10.1364C45.3101 9.4053 45.1832 8.50758 45.1832 7.44318C45.187 6.46591 45.2988 5.5928 45.5185 4.82386C45.742 4.05114 46.0601 3.39583 46.473 2.85795C46.8897 2.32008 47.3878 1.91098 47.9673 1.63068C48.5469 1.34659 49.1965 1.20455 49.9162 1.20455C50.6927 1.20455 51.3783 1.35606 51.973 1.65909C52.5677 1.95833 53.045 2.36553 53.4048 2.88068C53.7685 3.39583 53.9882 3.97348 54.0639 4.61364H51.6378C51.5431 4.20833 51.3442 3.89015 51.0412 3.65909C50.7382 3.42803 50.3632 3.3125 49.9162 3.3125C49.1586 3.3125 48.5829 3.64205 48.1889 4.30114C47.7988 4.96023 47.5999 5.85606 47.5923 6.98864H47.6719C47.8461 6.64394 48.081 6.35038 48.3764 6.10795C48.6757 5.86174 49.0147 5.67424 49.3935 5.54545C49.776 5.41288 50.1795 5.34659 50.6037 5.34659C51.2931 5.34659 51.9067 5.50947 52.4446 5.83523C52.9825 6.1572 53.4067 6.60038 53.7173 7.16477C54.0279 7.72917 54.1832 8.375 54.1832 9.10227C54.1832 9.89015 53.9995 10.5909 53.6321 11.2045C53.2685 11.8182 52.759 12.2992 52.1037 12.6477C51.4522 12.9924 50.6946 13.1629 49.831 13.1591ZM49.8196 11.2273C50.1984 11.2273 50.5374 11.1364 50.8366 10.9545C51.1359 10.7727 51.3707 10.5265 51.5412 10.2159C51.7116 9.9053 51.7969 9.55682 51.7969 9.17045C51.7969 8.78409 51.7116 8.4375 51.5412 8.13068C51.3745 7.82386 51.1435 7.57955 50.848 7.39773C50.5526 7.21591 50.2154 7.125 49.8366 7.125C49.5526 7.125 49.2893 7.17803 49.0469 7.28409C48.8082 7.39015 48.598 7.53788 48.4162 7.72727C48.2382 7.91667 48.098 8.13636 47.9957 8.38636C47.8935 8.63258 47.8423 8.89583 47.8423 9.17614C47.8423 9.55114 47.9276 9.89394 48.098 10.2045C48.2723 10.5152 48.5071 10.7633 48.8026 10.9489C49.1018 11.1345 49.4408 11.2273 49.8196 11.2273ZM60.3935 13.1591C59.795 13.1553 59.2173 13.0549 58.6605 12.858C58.1075 12.661 57.6113 12.3409 57.1719 11.8977C56.7325 11.4545 56.384 10.8674 56.1264 10.1364C55.8726 9.4053 55.7457 8.50758 55.7457 7.44318C55.7495 6.46591 55.8613 5.5928 56.081 4.82386C56.3045 4.05114 56.6226 3.39583 57.0355 2.85795C57.4522 2.32008 57.9503 1.91098 58.5298 1.63068C59.1094 1.34659 59.759 1.20455 60.4787 1.20455C61.2552 1.20455 61.9408 1.35606 62.5355 1.65909C63.1302 1.95833 63.6075 2.36553 63.9673 2.88068C64.331 3.39583 64.5507 3.97348 64.6264 4.61364H62.2003C62.1056 4.20833 61.9067 3.89015 61.6037 3.65909C61.3007 3.42803 60.9257 3.3125 60.4787 3.3125C59.7211 3.3125 59.1454 3.64205 58.7514 4.30114C58.3613 4.96023 58.1624 5.85606 58.1548 6.98864H58.2344C58.4086 6.64394 58.6435 6.35038 58.9389 6.10795C59.2382 5.86174 59.5772 5.67424 59.956 5.54545C60.3385 5.41288 60.742 5.34659 61.1662 5.34659C61.8556 5.34659 62.4692 5.50947 63.0071 5.83523C63.545 6.1572 63.9692 6.60038 64.2798 7.16477C64.5904 7.72917 64.7457 8.375 64.7457 9.10227C64.7457 9.89015 64.562 10.5909 64.1946 11.2045C63.831 11.8182 63.3215 12.2992 62.6662 12.6477C62.0147 12.9924 61.2571 13.1629 60.3935 13.1591ZM60.3821 11.2273C60.7609 11.2273 61.0999 11.1364 61.3991 10.9545C61.6984 10.7727 61.9332 10.5265 62.1037 10.2159C62.2741 9.9053 62.3594 9.55682 62.3594 9.17045C62.3594 8.78409 62.2741 8.4375 62.1037 8.13068C61.937 7.82386 61.706 7.57955 61.4105 7.39773C61.1151 7.21591 60.7779 7.125 60.3991 7.125C60.1151 7.125 59.8518 7.17803 59.6094 7.28409C59.3707 7.39015 59.1605 7.53788 58.9787 7.72727C58.8007 7.91667 58.6605 8.13636 58.5582 8.38636C58.456 8.63258 58.4048 8.89583 58.4048 9.17614C58.4048 9.55114 58.4901 9.89394 58.6605 10.2045C58.8348 10.5152 59.0696 10.7633 59.3651 10.9489C59.6643 11.1345 60.0033 11.2273 60.3821 11.2273ZM70.956 13.1591C70.3575 13.1553 69.7798 13.0549 69.223 12.858C68.67 12.661 68.1738 12.3409 67.7344 11.8977C67.295 11.4545 66.9465 10.8674 66.6889 10.1364C66.4351 9.4053 66.3082 8.50758 66.3082 7.44318C66.312 6.46591 66.4238 5.5928 66.6435 4.82386C66.867 4.05114 67.1851 3.39583 67.598 2.85795C68.0147 2.32008 68.5128 1.91098 69.0923 1.63068C69.6719 1.34659 70.3215 1.20455 71.0412 1.20455C71.8177 1.20455 72.5033 1.35606 73.098 1.65909C73.6927 1.95833 74.17 2.36553 74.5298 2.88068C74.8935 3.39583 75.1132 3.97348 75.1889 4.61364H72.7628C72.6681 4.20833 72.4692 3.89015 72.1662 3.65909C71.8632 3.42803 71.4882 3.3125 71.0412 3.3125C70.2836 3.3125 69.7079 3.64205 69.3139 4.30114C68.9238 4.96023 68.7249 5.85606 68.7173 6.98864H68.7969C68.9711 6.64394 69.206 6.35038 69.5014 6.10795C69.8007 5.86174 70.1397 5.67424 70.5185 5.54545C70.901 5.41288 71.3045 5.34659 71.7287 5.34659C72.4181 5.34659 73.0317 5.50947 73.5696 5.83523C74.1075 6.1572 74.5317 6.60038 74.8423 7.16477C75.1529 7.72917 75.3082 8.375 75.3082 9.10227C75.3082 9.89015 75.1245 10.5909 74.7571 11.2045C74.3935 11.8182 73.884 12.2992 73.2287 12.6477C72.5772 12.9924 71.8196 13.1629 70.956 13.1591ZM70.9446 11.2273C71.3234 11.2273 71.6624 11.1364 71.9616 10.9545C72.2609 10.7727 72.4957 10.5265 72.6662 10.2159C72.8366 9.9053 72.9219 9.55682 72.9219 9.17045C72.9219 8.78409 72.8366 8.4375 72.6662 8.13068C72.4995 7.82386 72.2685 7.57955 71.973 7.39773C71.6776 7.21591 71.3404 7.125 70.9616 7.125C70.6776 7.125 70.4143 7.17803 70.1719 7.28409C69.9332 7.39015 69.723 7.53788 69.5412 7.72727C69.3632 7.91667 69.223 8.13636 69.1207 8.38636C69.0185 8.63258 68.9673 8.89583 68.9673 9.17614C68.9673 9.55114 69.0526 9.89394 69.223 10.2045C69.3973 10.5152 69.6321 10.7633 69.9276 10.9489C70.2268 11.1345 70.5658 11.2273 70.9446 11.2273ZM82.1605 7.13068V8.27273C81.509 8.27273 81.0545 8.40341 80.7969 8.66477C80.5431 8.92614 80.4162 9.34848 80.4162 9.93182V11.1932C80.4162 11.8939 80.3177 12.4564 80.1207 12.8807C79.9276 13.3011 79.6548 13.6193 79.3026 13.8352C78.9541 14.0511 78.5393 14.1951 78.0582 14.267C77.581 14.339 77.0545 14.375 76.4787 14.375V12.5625C76.9257 12.5625 77.2647 12.5057 77.4957 12.392C77.7306 12.2746 77.8897 12.0966 77.973 11.858C78.0563 11.6155 78.098 11.3125 78.098 10.9489V9.28977C78.098 8.99811 78.151 8.72348 78.2571 8.46591C78.3632 8.20455 78.5601 7.97538 78.848 7.77841C79.1359 7.57765 79.5469 7.42045 80.081 7.30682C80.6151 7.18939 81.3082 7.13068 82.1605 7.13068ZM76.4787 -0.00568199C77.0545 -0.00568199 77.581 0.0303027 78.0582 0.102272C78.5393 0.174242 78.9541 0.318182 79.3026 0.534091C79.6548 0.75 79.9276 1.07008 80.1207 1.49432C80.3177 1.91477 80.4162 2.47538 80.4162 3.17614V4.43182C80.4162 5.01515 80.5431 5.4375 80.7969 5.69886C81.0545 5.96023 81.509 6.09091 82.1605 6.09091V7.23295C81.3082 7.23295 80.6151 7.17614 80.081 7.0625C79.5469 6.94508 79.1359 6.78788 78.848 6.59091C78.5601 6.39015 78.3632 6.16098 78.2571 5.90341C78.151 5.64205 78.098 5.36742 78.098 5.07955V3.42045C78.098 3.05303 78.0563 2.75 77.973 2.51136C77.8897 2.26894 77.7306 2.09091 77.4957 1.97727C77.2647 1.85985 76.9257 1.80114 76.4787 1.80114V-0.00568199ZM82.1605 6.09091V8.27273H80.1207V6.09091H82.1605ZM9.75781 28.2841V23.2727H12.1783V32H9.8544V30.4148H9.76349C9.56652 30.9261 9.23887 31.3371 8.78054 31.6477C8.32599 31.9583 7.77107 32.1136 7.11577 32.1136C6.53243 32.1136 6.01918 31.9811 5.57599 31.7159C5.13281 31.4508 4.78622 31.0739 4.53622 30.5852C4.29001 30.0966 4.16501 29.5114 4.16122 28.8295V23.2727H6.58168V28.3977C6.58546 28.9129 6.72372 29.3201 6.99645 29.6193C7.26918 29.9186 7.63471 30.0682 8.09304 30.0682C8.38471 30.0682 8.65743 30.0019 8.91122 29.8693C9.16501 29.733 9.36955 29.5322 9.52486 29.267C9.68395 29.0019 9.7616 28.6742 9.75781 28.2841ZM18.7564 23.2727V25.0909H13.5007V23.2727H18.7564ZM14.6939 21.1818H17.1143V29.3182C17.1143 29.5417 17.1484 29.7159 17.2166 29.8409C17.2848 29.9621 17.3795 30.0473 17.5007 30.0966C17.6257 30.1458 17.7696 30.1705 17.9325 30.1705C18.0462 30.1705 18.1598 30.161 18.2734 30.142C18.3871 30.1193 18.4742 30.1023 18.5348 30.0909L18.9155 31.892C18.7943 31.9299 18.6238 31.9735 18.4041 32.0227C18.1844 32.0758 17.9174 32.108 17.603 32.1193C17.0196 32.142 16.5083 32.0644 16.0689 31.8864C15.6333 31.7083 15.2943 31.4318 15.0518 31.0568C14.8094 30.6818 14.6901 30.2083 14.6939 29.6364V21.1818ZM22.7138 29.4886L22.7195 26.5852H23.0717L25.8672 23.2727H28.6456L24.8899 27.6591H24.3161L22.7138 29.4886ZM20.5206 32V20.3636H22.9411V32H20.5206ZM25.9751 32L23.407 28.1989L25.0206 26.4886L28.8104 32H25.9751ZM32.6896 32.142C32.0268 32.142 31.4264 31.9716 30.8885 31.6307C30.3544 31.286 29.9302 30.7803 29.6158 30.1136C29.3052 29.4432 29.1499 28.6212 29.1499 27.6477C29.1499 26.6477 29.3108 25.8163 29.6328 25.1534C29.9548 24.4867 30.3828 23.9886 30.9169 23.6591C31.4548 23.3258 32.0438 23.1591 32.6839 23.1591C33.1726 23.1591 33.5798 23.2424 33.9055 23.4091C34.2351 23.572 34.5002 23.7765 34.701 24.0227C34.9055 24.2652 35.0608 24.5038 35.1669 24.7386H35.2408V20.3636H37.6555V32H35.2692V30.6023H35.1669C35.0533 30.8447 34.8923 31.0852 34.6839 31.3239C34.4794 31.5587 34.2124 31.7538 33.8828 31.9091C33.5571 32.0644 33.1593 32.142 32.6896 32.142ZM33.4567 30.2159C33.8468 30.2159 34.1764 30.1098 34.4453 29.8977C34.718 29.6818 34.9264 29.3807 35.0703 28.9943C35.218 28.608 35.2919 28.1553 35.2919 27.6364C35.2919 27.1174 35.2199 26.6667 35.076 26.2841C34.9321 25.9015 34.7237 25.6061 34.451 25.3977C34.1783 25.1894 33.8468 25.0852 33.4567 25.0852C33.0589 25.0852 32.7237 25.1932 32.451 25.4091C32.1783 25.625 31.9718 25.9242 31.8317 26.3068C31.6915 26.6894 31.6214 27.1326 31.6214 27.6364C31.6214 28.1439 31.6915 28.5928 31.8317 28.983C31.9756 29.3693 32.1821 29.6723 32.451 29.892C32.7237 30.108 33.0589 30.2159 33.4567 30.2159ZM39.6456 32V23.2727H41.9524V24.8125H42.0547C42.2365 24.3011 42.5395 23.8977 42.9638 23.6023C43.388 23.3068 43.8956 23.1591 44.4865 23.1591C45.085 23.1591 45.5945 23.3087 46.0149 23.608C46.4354 23.9034 46.7157 24.3049 46.8558 24.8125H46.9467C47.1248 24.3125 47.4467 23.9129 47.9126 23.6136C48.3823 23.3106 48.9373 23.1591 49.5774 23.1591C50.3918 23.1591 51.0528 23.4186 51.5604 23.9375C52.0717 24.4527 52.3274 25.1837 52.3274 26.1307V32H49.9126V26.608C49.9126 26.1231 49.7839 25.7595 49.5263 25.517C49.2687 25.2746 48.9467 25.1534 48.5604 25.1534C48.121 25.1534 47.7782 25.2936 47.532 25.5739C47.2857 25.8504 47.1626 26.2159 47.1626 26.6705V32H44.8161V26.5568C44.8161 26.1288 44.6929 25.7879 44.4467 25.5341C44.2043 25.2803 43.8842 25.1534 43.4865 25.1534C43.2176 25.1534 42.9751 25.2216 42.7592 25.358C42.5471 25.4905 42.3786 25.678 42.2536 25.9205C42.1286 26.1591 42.0661 26.4394 42.0661 26.7614V32H39.6456ZM54.2393 32V23.2727H56.6598V32H54.2393ZM55.4553 22.1477C55.0954 22.1477 54.7867 22.0284 54.5291 21.7898C54.2753 21.5473 54.1484 21.2576 54.1484 20.9205C54.1484 20.5871 54.2753 20.3011 54.5291 20.0625C54.7867 19.8201 55.0954 19.6989 55.4553 19.6989C55.8151 19.6989 56.1219 19.8201 56.3757 20.0625C56.6333 20.3011 56.7621 20.5871 56.7621 20.9205C56.7621 21.2576 56.6333 21.5473 56.3757 21.7898C56.1219 22.0284 55.8151 22.1477 55.4553 22.1477ZM63.2408 23.2727V25.0909H57.9851V23.2727H63.2408ZM59.1783 21.1818H61.5987V29.3182C61.5987 29.5417 61.6328 29.7159 61.701 29.8409C61.7692 29.9621 61.8639 30.0473 61.9851 30.0966C62.1101 30.1458 62.254 30.1705 62.4169 30.1705C62.5305 30.1705 62.6442 30.161 62.7578 30.142C62.8714 30.1193 62.9586 30.1023 63.0192 30.0909L63.3999 31.892C63.2786 31.9299 63.1082 31.9735 62.8885 32.0227C62.6688 32.0758 62.4018 32.108 62.0874 32.1193C61.504 32.142 60.9927 32.0644 60.5533 31.8864C60.1177 31.7083 59.7786 31.4318 59.5362 31.0568C59.2938 30.6818 59.1745 30.2083 59.1783 29.6364V21.1818ZM64.8175 32V23.2727H67.1641V24.7955H67.255C67.4141 24.2538 67.6811 23.8447 68.0561 23.5682C68.4311 23.2879 68.8629 23.1477 69.3516 23.1477C69.4728 23.1477 69.6035 23.1553 69.7436 23.1705C69.8838 23.1856 70.0069 23.2064 70.1129 23.233V25.3807C69.9993 25.3466 69.8421 25.3163 69.6413 25.2898C69.4406 25.2633 69.2569 25.25 69.0902 25.25C68.7341 25.25 68.416 25.3277 68.1357 25.483C67.8591 25.6345 67.6394 25.8466 67.4766 26.1193C67.3175 26.392 67.2379 26.7064 67.2379 27.0625V32H64.8175ZM74.9013 32.1705C74.0187 32.1705 73.2554 31.983 72.6115 31.608C71.9714 31.2292 71.477 30.7027 71.1286 30.0284C70.7801 29.3504 70.6058 28.5644 70.6058 27.6705C70.6058 26.7689 70.7801 25.9811 71.1286 25.3068C71.477 24.6288 71.9714 24.1023 72.6115 23.7273C73.2554 23.3485 74.0187 23.1591 74.9013 23.1591C75.7839 23.1591 76.5452 23.3485 77.1854 23.7273C77.8293 24.1023 78.3255 24.6288 78.674 25.3068C79.0225 25.9811 79.1967 26.7689 79.1967 27.6705C79.1967 28.5644 79.0225 29.3504 78.674 30.0284C78.3255 30.7027 77.8293 31.2292 77.1854 31.608C76.5452 31.983 75.7839 32.1705 74.9013 32.1705ZM74.9126 30.2955C75.3142 30.2955 75.6494 30.1818 75.9183 29.9545C76.1873 29.7235 76.3899 29.4091 76.5263 29.0114C76.6664 28.6136 76.7365 28.161 76.7365 27.6534C76.7365 27.1458 76.6664 26.6932 76.5263 26.2955C76.3899 25.8977 76.1873 25.5833 75.9183 25.3523C75.6494 25.1212 75.3142 25.0057 74.9126 25.0057C74.5073 25.0057 74.1664 25.1212 73.8899 25.3523C73.6172 25.5833 73.4107 25.8977 73.2706 26.2955C73.1342 26.6932 73.0661 27.1458 73.0661 27.6534C73.0661 28.161 73.1342 28.6136 73.2706 29.0114C73.4107 29.4091 73.6172 29.7235 73.8899 29.9545C74.1664 30.1818 74.5073 30.2955 74.9126 30.2955Z" fill="#A7A7A7"/>
</svg>
